<svg width="4097" height="1652" viewBox="0 0 4097 1652" fill="none" xmlns="http://www.w3.org/2000/svg">
<rect x="308" y="555" width="16" height="675" fill="#FF0000"/>
<rect x="319" y="555" width="1445" height="10" fill="#FF0000"/>
<rect x="308" y="1223" width="2286" height="10" fill="#FF0000"/>
<rect x="308" y="1223" width="2286" height="10" fill="#FF0000"/>
<rect x="2589" y="1192" width="78" height="118" fill="#FF0000"/>
<rect x="2666" y="1297" width="52" height="13" fill="#FF0000"/>
<rect x="1759" y="755" width="962" height="10" fill="#FF0000"/>
<rect x="2718" y="755" width="1228" height="215" fill="#FF0000"/>
<rect x="3938" y="1020" width="8" height="324" fill="#FF0000"/>
<rect x="3908" y="970" width="38" height="54" fill="#FF0000"/>
<rect x="1756" y="557" width="17" height="201" fill="#FF0000"/>
<rect x="1022" y="732" width="139" height="231" fill="#FF0000"/>
<rect x="1386" y="732" width="202" height="231" fill="#FF0000"/>
<rect x="1813" y="846" width="860" height="241" fill="#FF0000"/>
<rect x="2718" y="1164" width="1112" height="183" fill="#FF0000"/>
<rect x="1715" y="931" width="98" height="154" fill="#FF0000"/>
<rect x="1222" y="712" width="104" height="119" fill="#FF0000"/>
<rect x="1196" y="643" width="27" height="27" fill="#FF0000"/>
<rect x="1386" y="643" width="27" height="27" fill="#FF0000"/>
<rect x="1222" y="938" width="104" height="65" fill="#FF0000"/>
<rect x="1215" y="841" width="119" height="89" fill="#FF0000"/>
<rect x="2929" y="1050" width="314" height="57" fill="#FF0000"/>
<rect x="3477" y="1058" width="228" height="41" fill="#FF0000"/>
<rect x="2855" y="1007" width="19" height="19" fill="#FF0000"/>
<rect x="3357" y="1007" width="19" height="19" fill="#FF0000"/>
<rect x="3830" y="1292" width="125" height="55" fill="#FF0000"/>
<rect x="853" y="732" width="154" height="231" fill="#FF0000"/>
</svg>
